<svg width="50" height="50" viewBox="0 0 50 50" fill="none" xmlns="http://www.w3.org/2000/svg">
<path d="M12.3239 0.000732422L0 7.13099L12.3239 14.2612V28.6098L24.7358 21.3915V7.13099L12.3239 0.000732422Z" fill="#0072BA"/>
<path d="M12.3239 0.000732422L0 7.13099L12.3239 14.2612L24.7358 7.13099L12.3239 0.000732422Z" fill="#00B8ED"/>
<path d="M24.7355 21.3916L12.4116 28.6099L24.7355 35.7401V50.0006L37.1474 42.8704V28.6099L24.7355 21.3916Z" fill="#0072BA"/>
<path d="M24.7357 21.3911L12.3237 28.6094L24.7357 35.7396L37.1476 28.6094L24.7357 21.3911Z" fill="#00B8ED"/>
<path d="M37.1468 0L24.7349 7.13025L37.1468 14.2605V28.609L49.4707 21.3908V7.13025L37.1468 0Z" fill="#0072BA"/>
<path d="M37.1468 0L24.7349 7.13025L37.1468 14.2605L49.4707 7.13025L37.1468 0Z" fill="#00B8ED"/>
</svg>
