<svg width="2500" height="737" viewBox="0 0 2500 737" fill="none" xmlns="http://www.w3.org/2000/svg">
<mask id="mask0" style="mask-type:alpha" maskUnits="userSpaceOnUse" x="-5" y="0" width="2508" height="737">
<path d="M2503 0H-5V737H2503V287.113V0Z" fill="#0072BA"/>
<path d="M2503 0H-5V737H2503V287.113V0Z" fill="#29374D"/>
</mask>
<g mask="url(#mask0)">
<g filter="url(#filter0_f)">
<ellipse cx="675.5" cy="231" rx="521.5" ry="518" fill="#344867" fill-opacity="0.51"/>
</g>
<path d="M902 -26.5L1251.43 194.422V1031L2518 283.5" stroke="#0072BA"/>
<path d="M-1229 194C-1213.62 195.811 1265.41 194.755 2503 194" stroke="#00B8ED" stroke-opacity="0.44"/>
<path d="M1344 1230.86L663.085 1629V837.572L-13 444.286L663.085 51L1350 448" stroke="#0072BA" stroke-opacity="0.33"/>
<path d="M1251.43 195L1604 -15" stroke="#00B8ED" stroke-opacity="0.2"/>
<path d="M1252 504.711L1970.43 87L2694 504.711V1340.13L1970.43 1763V922.422" stroke="#0072BA" stroke-opacity="0.19"/>
<path d="M579 723L1758.43 31L2482 448.711V1284.13L1758.43 1707V866.422" stroke="#0072BA" stroke-opacity="0.19"/>
<path d="M-103.066 59.4216V59.1339L-103.314 58.9893L-821.005 -358.289L-103.565 -775.422L619.5 -358.001V476.845L-103.066 899.129V59.4216Z" stroke="#0072BA" stroke-opacity="0.19"/>
</g>
<defs>
<filter id="filter0_f" x="-20" y="-461" width="1391" height="1384" filterUnits="userSpaceOnUse" color-interpolation-filters="sRGB">
<feFlood flood-opacity="0" result="BackgroundImageFix"/>
<feBlend mode="normal" in="SourceGraphic" in2="BackgroundImageFix" result="shape"/>
<feGaussianBlur stdDeviation="87" result="effect1_foregroundBlur"/>
</filter>
</defs>
</svg>
