<svg width="130" height="166" viewBox="0 0 130 166" fill="none" xmlns="http://www.w3.org/2000/svg">
<path d="M113.216 54.3574V61.6223L87.907 75.6803L79.0914 70.4911L57.8581 82.5677L24.7759 62.8488V55.584" stroke="#1D1D1B" stroke-miterlimit="10" stroke-dasharray="2 2"/>
<path d="M27.5253 53.7911L24.7764 55.5838L57.8586 75.3027L79.0919 63.226L87.9075 68.3208L113.217 54.3572L98.9981 46.715" stroke="#1D1D1B" stroke-miterlimit="10" stroke-linejoin="round" stroke-dasharray="2 2"/>
<path d="M58.2363 87.9447V142.761L26.8604 124.835V70.0184" stroke="#1D1D1B" stroke-miterlimit="10" stroke-dasharray="2 2"/>
<path d="M58.2363 87.9439V142.761L102.599 118.513V67.5685" stroke="#1D1D1B" stroke-miterlimit="10" stroke-dasharray="2 2"/>
<path d="M84.7784 73.6983L58.2368 88.511L26.8608 70.0187L31.8848 66.9995" stroke="#1D1D1B" stroke-miterlimit="10" stroke-linejoin="round" stroke-dasharray="2 2"/>
<path d="M56.2452 60.6768V70.9608L24.7744 52.0911V41.1466" stroke="#1D1D1B" stroke-miterlimit="10" stroke-linecap="round" stroke-linejoin="round" stroke-dasharray="2 2"/>
<path d="M56.2441 60.6774V70.9614L100.607 45.7703V38.9772" stroke="#1D1D1B" stroke-miterlimit="10" stroke-linecap="round" stroke-linejoin="round" stroke-dasharray="2 2"/>
<path d="M94.5424 35.5799L100.609 38.9765L78.807 50.9588L73.1195 50.6757L56.2466 60.6767L24.7759 41.1465L69.1383 16.3328L77.9539 21.5219" stroke="#1D1D1B" stroke-miterlimit="10" stroke-linejoin="round" stroke-dasharray="2 2"/>
<path d="M73.1188 50.6754L53.5918 38.5044L72.7397 25.7673" stroke="#1D1D1B" stroke-miterlimit="10" stroke-dasharray="2 2"/>
<path d="M55.7715 39.5433L81.5548 18.5979L100.987 30.1085L76.5308 50.6765" stroke="#1D1D1B" stroke-miterlimit="10" stroke-dasharray="2 2"/>
<path d="M63.1475 152.943V164.475L1.44873 128.361V37.1375" stroke="#0072BA" stroke-miterlimit="10"/>
<path d="M63.1484 74.2258V164.473L128.709 128.628V37.6129" stroke="#0072BA" stroke-miterlimit="10"/>
<path d="M63.1478 74.0313L1 37.2922L65.2134 1L128.708 37.2922L63.1478 74.0313Z" stroke="#0072BA" stroke-miterlimit="10"/>
</svg>
