<svg width="450" height="367" viewBox="0 0 450 367" fill="none" xmlns="http://www.w3.org/2000/svg">
<rect width="450" height="367" fill="#D7EFF7"/>
<mask id="mask0" style="mask-type:alpha" maskUnits="userSpaceOnUse" x="0" y="0" width="450" height="367">
<rect width="450" height="367" fill="#D7EFF7"/>
</mask>
<g mask="url(#mask0)">
<path d="M321.875 153.004L258 189.96L321.875 226.916V301.285L386.207 263.873V189.96L321.875 153.004Z" fill="#0072BA"/>
<path d="M321.875 153.004L258 189.96L321.875 226.916L386.207 189.96L321.875 153.004Z" fill="#00B8ED"/>
<path d="M386.207 263.867L322.332 301.279L386.207 338.236V412.148L450.539 375.192V301.279L386.207 263.867Z" fill="#0072BA"/>
<path d="M386.207 263.868L321.876 301.281L386.207 338.237L450.539 301.281L386.207 263.868Z" fill="#00B8ED"/>
<path d="M450.536 153L386.204 189.956L450.536 226.913V301.282L514.411 263.869V189.956L450.536 153Z" fill="#0072BA"/>
<path d="M450.536 153L386.204 189.956L450.536 226.913L514.411 189.956L450.536 153Z" fill="#00B8ED"/>
<path d="M-21.529 246L-70 274.044L-21.529 302.088V358.522L27.2882 330.132V274.044L-21.529 246Z" fill="#0072BA"/>
<path d="M-21.529 246L-70 274.044L-21.529 302.088L27.2882 274.044L-21.529 246Z" fill="#00B8ED"/>
<path d="M27.2889 330.126L-21.1821 358.516L27.2889 386.56V442.648L76.1061 414.604V358.516L27.2889 330.126Z" fill="#0072BA"/>
<path d="M27.2894 330.125L-21.5278 358.516L27.2894 386.559L76.1066 358.516L27.2894 330.125Z" fill="#00B8ED"/>
</g>
</svg>
