<svg width="197" height="160" viewBox="0 0 197 160" fill="none" xmlns="http://www.w3.org/2000/svg">
<path d="M108.975 149.868L50.5049 116.955L137.832 71.6882L196.302 101.112L108.975 149.868Z" stroke="#0072BA" stroke-miterlimit="10" stroke-linejoin="round"/>
<path d="M112.298 104.258L104.997 100.307L112.866 96.6254L120.262 100.127L112.298 104.258Z" stroke="#1D1D1B" stroke-miterlimit="10" stroke-dasharray="2 2"/>
<path d="M50.5059 50.4276L137.739 7.49305M137.739 71.6888L50.5059 116.673V45.6318L137.739 2.72253V71.6888Z" stroke="#0072BA" stroke-miterlimit="10"/>
<path d="M108.315 149.962V159.393L196.114 110.459V101.029" stroke="#0072BA" stroke-miterlimit="10" stroke-linejoin="round"/>
<path d="M50.6129 126.203L50.5049 116.672" stroke="#0072BA" stroke-miterlimit="10"/>
<path d="M195.547 110.825L108.314 159.392L50.6128 126.202" stroke="#0072BA" stroke-miterlimit="10" stroke-linejoin="round"/>
<path d="M166.314 117.804V122.519L135.004 139.872V135.156" stroke="#0072BA" stroke-miterlimit="10"/>
<path d="M135.051 135.266L124.556 129.065L155.388 111.891L165.883 118.187" stroke="#0072BA" stroke-miterlimit="10"/>
<path d="M108.677 102.556L52.759 131.053C48.6587 133.143 43.7933 133.084 39.7448 130.896L23.3725 122.046C21.2359 120.891 21.2856 117.808 23.4584 116.723L140.89 58.0626C144.28 56.3693 146.422 52.9057 146.422 49.1166V30.3084C146.422 27.3296 143.282 25.3959 140.622 26.7361L38.8002 78.0346C34.8098 80.045 30.1007 77.1445 30.1007 72.6762V35.9764" stroke="#1D1D1B" stroke-miterlimit="10" stroke-dasharray="2 2"/>
<path d="M46.5137 9.92523C43.5392 4.562 37.9486 0.925293 31.4978 0.925293C23.9002 0.925293 17.4495 5.95791 15.1558 12.9742C14.2957 12.7538 13.4356 12.6436 12.5039 12.6436C6.16061 12.6436 1 17.9333 1 24.4353C1 30.9373 6.16061 36.2271 12.5039 36.2271C15.8009 36.2271 27.484 36.2271 31.4978 36.2271C34.4006 36.2271 43.8259 36.2271 46.3345 36.2271C53.4304 36.2271 59.2002 30.3128 59.2002 23.0394C59.2002 15.8395 53.5379 9.9987 46.5137 9.92523Z" stroke="#1D1D1B" stroke-miterlimit="10" stroke-dasharray="2 2"/>
</svg>
