<svg width="144" height="154" viewBox="0 0 144 154" fill="none" xmlns="http://www.w3.org/2000/svg">
<path d="M72 96.4105V153.121L1 114.272V57.5614" stroke="#0072BA" stroke-miterlimit="10"/>
<path d="M72 96.4105V153.121L143 114.272V57.5614" stroke="#0072BA" stroke-miterlimit="10"/>
<path d="M72 97.4528L107.426 44.4633L143 57.5618L42.826 1L1 57.5618" stroke="#0072BA" stroke-miterlimit="10"/>
<path d="M107.425 44.4633L42.8257 1" stroke="#0072BA" stroke-miterlimit="10"/>
<path d="M35.3834 112.188L19.9033 103.853" stroke="#1D1D1B" stroke-miterlimit="10" stroke-dasharray="2 2"/>
<path d="M44.7612 117.844L103.556 151.334" stroke="#1D1D1B" stroke-miterlimit="10" stroke-dasharray="2 2"/>
<path d="M40.7427 111.593V93.8798" stroke="#1D1D1B" stroke-miterlimit="10" stroke-dasharray="2 2"/>
<path d="M40.7416 117.994C42.3857 117.994 43.7185 116.661 43.7185 115.017C43.7185 113.373 42.3857 112.04 40.7416 112.04C39.0975 112.04 37.7646 113.373 37.7646 115.017C37.7646 116.661 39.0975 117.994 40.7416 117.994Z" stroke="#1D1D1B" stroke-miterlimit="10"/>
<path d="M52.2022 93.5822L31.959 81.6744" stroke="#1D1D1B" stroke-miterlimit="10" stroke-dasharray="2 2"/>
<path d="M90.4555 116.207L61.728 99.2385" stroke="#1D1D1B" stroke-miterlimit="10" stroke-dasharray="2 2"/>
<path d="M57.5605 92.9872V38.2115" stroke="#1D1D1B" stroke-miterlimit="10" stroke-dasharray="2 2"/>
<path d="M57.5609 99.3869C59.205 99.3869 60.5379 98.054 60.5379 96.4099C60.5379 94.7658 59.205 93.433 57.5609 93.433C55.9168 93.433 54.584 94.7658 54.584 96.4099C54.584 98.054 55.9168 99.3869 57.5609 99.3869Z" stroke="#1D1D1B" stroke-miterlimit="10"/>
<path d="M91.6495 98.1967L65.0059 82.5677" stroke="#1D1D1B" stroke-miterlimit="10" stroke-dasharray="3 3"/>
<path d="M134.369 123.352L101.176 103.854" stroke="#1D1D1B" stroke-miterlimit="10" stroke-dasharray="2 2"/>
<path d="M97.1558 97.6008V76.7622" stroke="#1D1D1B" stroke-miterlimit="10" stroke-dasharray="2 2"/>
<path d="M97.1556 104.001C98.7998 104.001 100.133 102.668 100.133 101.024C100.133 99.3798 98.7998 98.047 97.1556 98.047C95.5115 98.047 94.1787 99.3798 94.1787 101.024C94.1787 102.668 95.5115 104.001 97.1556 104.001Z" stroke="#1D1D1B" stroke-miterlimit="10"/>
</svg>
