<svg width="163" height="160" viewBox="0 0 163 160" fill="none" xmlns="http://www.w3.org/2000/svg">
<path d="M86.3869 109.439V112.323V136.244C86.3869 136.458 86.1732 136.778 85.8527 136.992C85.2117 137.419 84.1433 137.419 83.3955 136.992C83.075 136.778 82.8613 136.565 82.8613 136.244V107.624" stroke="#1D1D1B" stroke-miterlimit="10" stroke-dasharray="2 2"/>
<path d="M136.705 82.1003V109.012C136.705 109.226 136.491 109.546 136.171 109.76C135.53 110.187 134.461 110.187 133.713 109.76C133.393 109.546 133.179 109.332 133.179 109.012V84.1294" stroke="#1D1D1B" stroke-miterlimit="10" stroke-dasharray="2 2"/>
<path d="M67.7965 98.653V125.672C67.7965 125.885 67.5829 126.206 67.2623 126.419C66.6213 126.846 65.553 126.846 64.8052 126.419C64.4847 126.206 64.271 125.992 64.271 125.672V97.0511" stroke="#1D1D1B" stroke-miterlimit="10" stroke-dasharray="2 2"/>
<path d="M119.077 67.0425L140.872 79.644L88.7366 110.721L61.2803 94.8085L90.6596 78.0421" stroke="#1D1D1B" stroke-miterlimit="10" stroke-dasharray="2 2"/>
<path d="M112.774 83.3821L117.902 80.392C118.543 80.0716 118.97 79.2172 118.97 78.5765C118.97 78.5765 118.97 78.2561 118.97 59.8878C118.97 59.247 118.543 58.9266 117.902 59.247L93.1167 73.5572C92.4757 73.8776 92.0483 74.7319 92.0483 75.3727V94.0614C92.0483 94.7022 92.4757 95.0225 93.1167 94.7022L107.005 86.7995" stroke="#1D1D1B" stroke-miterlimit="10" stroke-dasharray="2 2"/>
<path d="M107.752 93.3129L113.628 89.8955C113.628 89.8955 113.628 90.7498 112.987 91.177L107.218 94.5944C107.752 94.1672 107.752 93.3129 107.752 93.3129Z" stroke="#1D1D1B" stroke-miterlimit="10" stroke-dasharray="2 2"/>
<path d="M113.628 89.8955C113.628 89.8955 113.628 90.7498 112.987 91.177C111.064 92.3517 109.141 93.4197 107.218 94.5944" stroke="#1D1D1B" stroke-miterlimit="10" stroke-dasharray="2 2"/>
<path d="M107.752 93.3136L105.936 77.5083L111.705 74.0909L113.628 89.8962" stroke="#1D1D1B" stroke-miterlimit="10" stroke-dasharray="2 2"/>
<path d="M105.936 77.5082L107.752 93.3135C107.752 93.3135 107.752 95.6629 105.188 94.1678L100.487 91.498" stroke="#1D1D1B" stroke-miterlimit="10" stroke-dasharray="2 2"/>
<path d="M1 106.507V113.859L81 158.874L161 113.859V106.507" stroke="#0072BA" stroke-miterlimit="10"/>
<path d="M1 98.8974V106.249L7.06452 109.603L87.0645 64.5881V57.2361" stroke="#0072BA" stroke-miterlimit="10"/>
<path d="M1 104.573V43.6934L7.06452 47.0469L87.0645 3.9668V57.2365" stroke="#0072BA" stroke-miterlimit="10"/>
<path d="M87.0645 64.588L161 106.507L81 151.522L1 106.507" stroke="#0072BA" stroke-miterlimit="10"/>
<path d="M1 43.6932L80.3549 1L87.0645 3.96659" stroke="#0072BA" stroke-miterlimit="10"/>
<path d="M7.06494 47.046V109.602" stroke="#0072BA" stroke-miterlimit="10"/>
<path d="M7.06494 99.5425L87.0649 55.0436" stroke="#0072BA" stroke-miterlimit="10"/>
<path d="M7.06494 90.7715L87.0649 46.2726" stroke="#0072BA" stroke-miterlimit="10"/>
<path d="M7.06494 82.0005L87.0649 37.5016" stroke="#0072BA" stroke-miterlimit="10"/>
<path d="M19.8389 74.9069V83.4197" stroke="#0072BA" stroke-miterlimit="10"/>
<path d="M31.5811 77.615V86.2568" stroke="#0072BA" stroke-miterlimit="10"/>
<path d="M40.6123 63.4277V72.0695" stroke="#0072BA" stroke-miterlimit="10"/>
<path d="M52.2256 66.2648V74.9066" stroke="#0072BA" stroke-miterlimit="10"/>
<path d="M31.5811 59.1707V67.8125" stroke="#0072BA" stroke-miterlimit="10"/>
<path d="M52.2256 47.8206V56.3334" stroke="#0072BA" stroke-miterlimit="10"/>
<path d="M60.0972 52.0765V60.5894" stroke="#0072BA" stroke-miterlimit="10"/>
<path d="M19.8389 92.7065V102.509" stroke="#0072BA" stroke-miterlimit="10"/>
<path d="M40.6123 81.3555V90.7712" stroke="#0072BA" stroke-miterlimit="10"/>
<path d="M60.0972 70.0052V79.8079" stroke="#0072BA" stroke-miterlimit="10"/>
<path d="M71.8389 54.9147V63.4275" stroke="#0072BA" stroke-miterlimit="10"/>
<path d="M79.4517 42.2743V50.7871" stroke="#0072BA" stroke-miterlimit="10"/>
<path d="M7.06494 72.4562L52.2262 47.8206" stroke="#0072BA" stroke-miterlimit="10"/>
<path d="M80.9995 158.874V151.522" stroke="#0072BA" stroke-miterlimit="10"/>
<path d="M101.645 139.785L27.8384 98.1241" stroke="#0072BA" stroke-miterlimit="10"/>
<path d="M123.064 127.791L49.2578 86.2583" stroke="#0072BA" stroke-miterlimit="10"/>
<path d="M142.29 116.439L68.3545 74.9071" stroke="#0072BA" stroke-miterlimit="10"/>
</svg>
